<svg width="24" height="24" viewBox="0 0 24 24" fill="none" xmlns="http://www.w3.org/2000/svg">
<path d="M15.3174 3.03823C15.901 3.2816 16.3137 3.72028 16.6836 4.36341L16.8055 4.58536L17.2578 5.49384L17.2726 5.51921L17.2862 5.54129L17.3246 5.5963C17.5306 5.8315 17.8754 5.97359 18.103 5.97359C20.1878 5.97359 21.8905 7.68888 21.9949 9.84526L22 10.0553V16.1265C22 18.9258 19.8898 21.2102 17.2455 21.3285L17.03 21.3333H6.97C4.29734 21.3333 2.11747 19.1229 2.00459 16.3523L2 16.1265V10.0553C2 7.80133 3.74498 5.97359 5.897 5.97359C6.12377 5.97359 6.46908 5.8313 6.67544 5.5963L6.68255 5.58752L6.69145 5.57531L6.74287 5.49267L7.19382 4.58565C7.59577 3.82031 8.03303 3.30869 8.68188 3.03813C9.87089 2.54282 14.1293 2.54282 15.3174 3.03823ZM9.23635 4.49831C9.01496 4.59063 8.81452 4.80431 8.60062 5.17476L8.50802 5.34322L8.12316 6.12278L8.02843 6.30238C7.94936 6.44018 7.87026 6.5565 7.77995 6.65959C7.31953 7.1839 6.65847 7.48673 6.07082 7.53746L5.897 7.54508L5.7329 7.55087C4.53997 7.63538 3.58621 8.63436 3.50553 9.88345L3.5 10.0553V16.1265C3.5 18.067 4.95174 19.6529 6.77961 19.7565L6.97 19.7618H17.03C18.8819 19.7618 20.396 18.2403 20.4949 16.3259L20.5 16.1265V10.0553C20.5 8.72707 19.5142 7.63922 18.2671 7.55087L18.103 7.54508L17.9289 7.53745C17.3403 7.48672 16.6793 7.18381 16.2194 6.65889C16.1303 6.55717 16.0517 6.44167 15.973 6.30504L15.9542 6.27117L15.9317 6.2291L15.8156 6.00098L15.4917 5.34351C15.2729 4.92748 15.0726 4.67322 14.8564 4.54543L14.7626 4.49831L14.6433 4.45676C13.6142 4.15201 10.0344 4.16586 9.23635 4.49831ZM11.9997 9.1613C14.1699 9.1613 15.9287 11.0039 15.9287 13.2776C15.9287 15.5512 14.1699 17.3938 11.9997 17.3938C9.82949 17.3938 8.0707 15.5512 8.0707 13.2776C8.0707 11.0039 9.82949 9.1613 11.9997 9.1613ZM11.9997 10.7328C10.6579 10.7328 9.5707 11.8718 9.5707 13.2776C9.5707 14.6833 10.6579 15.8223 11.9997 15.8223C13.3415 15.8223 14.4287 14.6833 14.4287 13.2776C14.4287 11.8718 13.3415 10.7328 11.9997 10.7328ZM17.5043 8.42899C18.0566 8.42899 18.5043 8.89804 18.5043 9.47665C18.5043 10.0139 18.1183 10.4567 17.6209 10.5173L17.5043 10.5243C16.943 10.5243 16.4953 10.0553 16.4953 9.47665C16.4953 8.93937 16.8813 8.49656 17.3787 8.43604L17.5043 8.42899Z" fill="#373A43"/>
</svg>
