<svg width="24" height="25" viewBox="0 0 24 25" fill="none" xmlns="http://www.w3.org/2000/svg">
<path fill-rule="evenodd" clip-rule="evenodd" d="M12 4.25C16.4112 4.25 20 7.8388 20 12.25C20 16.6612 16.4112 20.25 12 20.25C7.5888 20.25 4 16.6612 4 12.25C4 7.8388 7.5888 4.25 12 4.25ZM12 5.45C8.2504 5.45 5.2 8.5004 5.2 12.25C5.2 15.9996 8.2504 19.05 12 19.05C15.7496 19.05 18.8 15.9996 18.8 12.25C18.8 8.5004 15.7496 5.45 12 5.45ZM11.729 8.32632C12.061 8.32632 12.329 8.59512 12.329 8.92632V12.4639L15.053 14.0879C15.337 14.2583 15.4306 14.6263 15.261 14.9111C15.1482 15.0991 14.949 15.2039 14.745 15.2039C14.6402 15.2039 14.5346 15.1767 14.4378 15.1199L11.4218 13.3207C11.241 13.2119 11.129 13.0159 11.129 12.8047V8.92632C11.129 8.59512 11.3978 8.32632 11.729 8.32632Z" fill="#38D0B7"/>
</svg>
