<svg width="20" height="18" viewBox="0 0 20 18" fill="none" xmlns="http://www.w3.org/2000/svg">
<path fill-rule="evenodd" clip-rule="evenodd" d="M16.0361 10.6882C17.9155 10.6882 19.4445 12.2095 19.4445 14.079C19.4445 15.9486 17.9155 17.4699 16.0361 17.4699C14.1556 17.4699 12.6255 15.9486 12.6255 14.079C12.6255 12.2095 14.1556 10.6882 16.0361 10.6882ZM16.0361 12.331C15.0613 12.331 14.2684 13.1152 14.2684 14.079C14.2684 15.044 15.0613 15.8271 16.0361 15.8271C17.0098 15.8271 17.8016 15.044 17.8016 14.079C17.8016 13.1152 17.0098 12.331 16.0361 12.331ZM8.03249 13.3001C8.48592 13.3001 8.85392 13.6681 8.85392 14.1215C8.85392 14.575 8.48592 14.943 8.03249 14.943H1.13136C0.677925 14.943 0.309923 14.575 0.309923 14.1215C0.309923 13.6681 0.677925 13.3001 1.13136 13.3001H8.03249ZM3.68733 0.055542C5.56786 0.055542 7.09682 1.57793 7.09682 3.44751C7.09682 5.31709 5.56786 6.83729 3.68733 6.83729C1.80789 6.83729 0.277832 5.31709 0.277832 3.44751C0.277832 1.57793 1.80789 0.055542 3.68733 0.055542ZM3.68733 1.69841C2.71365 1.69841 1.9207 2.4826 1.9207 3.44751C1.9207 4.41133 2.71365 5.19443 3.68733 5.19443C4.66209 5.19443 5.45395 4.41133 5.45395 3.44751C5.45395 2.4826 4.66209 1.69841 3.68733 1.69841ZM18.011 2.68457C18.4645 2.68457 18.8325 3.05257 18.8325 3.506C18.8325 3.95943 18.4645 4.32743 18.011 4.32743H11.111C10.6576 4.32743 10.2896 3.95943 10.2896 3.506C10.2896 3.05257 10.6576 2.68457 11.111 2.68457H18.011Z" fill="white"/>
</svg>
