<svg width="24" height="25" viewBox="0 0 24 25" fill="none" xmlns="http://www.w3.org/2000/svg">
<path fill-rule="evenodd" clip-rule="evenodd" d="M12 20.8611C12 20.8611 19 16.1944 19 10.75C19 8.89348 18.2625 7.11301 16.9497 5.80025C15.637 4.4875 13.8565 3.75 12 3.75C10.1435 3.75 8.36301 4.4875 7.05025 5.80025C5.7375 7.11301 5 8.89348 5 10.75C5 16.1944 12 20.8611 12 20.8611ZM14.334 10.7499C14.334 12.0386 13.2894 13.0832 12.0007 13.0832C10.712 13.0832 9.66737 12.0386 9.66737 10.7499C9.66737 9.46125 10.712 8.41658 12.0007 8.41658C13.2894 8.41658 14.334 9.46125 14.334 10.7499Z" fill="#38D0B7"/>
</svg>
