<svg width="25" height="24" viewBox="0 0 25 24" fill="none" xmlns="http://www.w3.org/2000/svg">
<path fill-rule="evenodd" clip-rule="evenodd" d="M6.25 11.6667C6.25 8.39898 8.89898 5.75 12.1667 5.75C15.4344 5.75 18.0833 8.39898 18.0833 11.6667C18.0833 13.2631 17.4511 14.7118 16.4234 15.7761C16.396 15.7968 16.3697 15.8197 16.3447 15.8447C16.3197 15.8697 16.2968 15.896 16.2761 15.9234C15.2118 16.9511 13.7631 17.5833 12.1667 17.5833C8.89898 17.5833 6.25 14.9344 6.25 11.6667ZM16.854 17.4147C15.5764 18.4577 13.9446 19.0833 12.1667 19.0833C8.07056 19.0833 4.75 15.7628 4.75 11.6667C4.75 7.57056 8.07056 4.25 12.1667 4.25C16.2628 4.25 19.5833 7.57056 19.5833 11.6667C19.5833 13.4446 18.9577 15.0764 17.9147 16.354L21.0303 19.4697C21.3232 19.7626 21.3232 20.2374 21.0303 20.5303C20.7374 20.8232 20.2626 20.8232 19.9697 20.5303L16.854 17.4147Z" fill="#ACABB0"/>
</svg>
