<svg width="25" height="25" viewBox="0 0 25 25" fill="none" xmlns="http://www.w3.org/2000/svg">
<path d="M21.9349 19.4456V21.2438C21.9349 22.3903 21.0041 23.3186 19.8602 23.3186H4.63966C3.49324 23.3186 2.56494 22.3877 2.56494 21.2438V19.4456C2.56494 16.2371 5.16722 13.6348 8.37569 13.6348H9.09854C10.0624 14.0762 11.1276 14.3272 12.2512 14.3272C13.3748 14.3272 14.4426 14.0762 15.4039 13.6348H16.1267C19.3301 13.6348 21.9349 16.2371 21.9349 19.4456ZM6.71439 6.71571C6.71439 3.65943 9.19239 1.18143 12.2487 1.18143C15.305 1.18143 17.783 3.65943 17.783 6.71571C17.783 9.77199 15.305 12.25 12.2487 12.25C9.19239 12.25 6.71439 9.77199 6.71439 6.71571Z" fill="#D7D7D9"/>
</svg>
