<svg width="24" height="25" viewBox="0 0 24 25" fill="none" xmlns="http://www.w3.org/2000/svg">
<path fill-rule="evenodd" clip-rule="evenodd" d="M17.6101 5.75C19.4788 5.75 20.9992 7.2553 20.9992 9.1047L21 11.2764C21 11.4422 20.9339 11.6029 20.8158 11.7201C20.6986 11.8382 20.5387 11.9043 20.3721 11.9043C19.7132 11.9043 19.1774 12.4301 19.1774 13.0764C19.1774 13.7227 19.7132 14.2485 20.3721 14.2485C20.7187 14.2485 21 14.5298 21 14.8764V17.0465C21 18.8959 19.4796 20.4012 17.611 20.4012H6.38902C4.52037 20.4012 3 18.8959 3 17.0465V14.8764C3 14.5298 3.2813 14.2485 3.62791 14.2485C4.28679 14.2485 4.8226 13.7227 4.8226 13.0764C4.8226 12.4485 4.30856 11.9747 3.62791 11.9747C3.4613 11.9747 3.3014 11.9085 3.18419 11.7905C3.06614 11.6733 3 11.5125 3 11.3467L3.00084 9.1047C3.00084 7.2553 4.52121 5.75 6.38986 5.75H17.6101ZM17.6101 7.00581H14.1759L14.1764 8.61426C14.1764 8.96087 13.8951 9.24217 13.5485 9.24217C13.2019 9.24217 12.9206 8.96087 12.9206 8.61426L12.9201 7.00581H6.38986C5.21358 7.00581 4.25665 7.94767 4.25665 9.1047L4.25581 10.7942C5.31656 11.0546 6.07842 11.9638 6.07842 13.0764C6.07842 14.2 5.30316 15.1477 4.25581 15.4231V17.0465C4.25581 18.2035 5.21274 19.1453 6.38902 19.1453H12.9201L12.9206 17.8992C12.9206 17.5517 13.2019 17.2713 13.5485 17.2713C13.8951 17.2713 14.1764 17.5517 14.1764 17.8992L14.1759 19.1453H17.611C18.7873 19.1453 19.7442 18.2035 19.7442 17.0465V15.4231C18.6968 15.1477 17.9216 14.2 17.9216 13.0764C17.9216 11.952 18.696 11.0052 19.7442 10.7297L19.7433 9.1047C19.7433 7.94767 18.7864 7.00581 17.6101 7.00581ZM13.5485 10.3584C13.8951 10.3584 14.1764 10.6397 14.1764 10.9863V15.0225C14.1764 15.3691 13.8951 15.6504 13.5485 15.6504C13.2019 15.6504 12.9206 15.3691 12.9206 15.0225V10.9863C12.9206 10.6397 13.2019 10.3584 13.5485 10.3584Z" fill="#38D0B7"/>
</svg>
