<svg width="494" height="53" viewBox="0 0 494 53" fill="none" xmlns="http://www.w3.org/2000/svg">
<g filter="url(#filter0_d_192:10334)">
<path d="M33.9004 34.7461L38.6855 9.45312H45.9854L38.0996 45H30.7266L24.9404 21.2207L19.1543 45H11.7812L3.89551 9.45312H11.1953L16.0049 34.6973L21.8643 9.45312H28.0654L33.9004 34.7461ZM60.8779 45.4883C57.0042 45.4883 53.8467 44.3001 51.4053 41.9238C48.9801 39.5475 47.7676 36.3818 47.7676 32.4268V31.7432C47.7676 29.0902 48.2803 26.722 49.3057 24.6387C50.3311 22.5391 51.7796 20.9277 53.6514 19.8047C55.5394 18.6654 57.6878 18.0957 60.0967 18.0957C63.71 18.0957 66.5501 19.235 68.6172 21.5137C70.7005 23.7923 71.7422 27.0231 71.7422 31.2061V34.0869H54.9209C55.1488 35.8122 55.8324 37.1956 56.9717 38.2373C58.1273 39.279 59.584 39.7998 61.3418 39.7998C64.0599 39.7998 66.1839 38.8151 67.7139 36.8457L71.1807 40.7275C70.1227 42.2249 68.6904 43.3968 66.8838 44.2432C65.0771 45.0732 63.0752 45.4883 60.8779 45.4883ZM60.0723 23.8086C58.6725 23.8086 57.5332 24.2806 56.6543 25.2246C55.7917 26.1686 55.2383 27.5195 54.9941 29.2773H64.8086V28.7158C64.776 27.1533 64.3529 25.9489 63.5391 25.1025C62.7253 24.2399 61.5697 23.8086 60.0723 23.8086ZM83.2168 45H76.1367V7.5H83.2168V45ZM100.038 39.7998C101.34 39.7998 102.398 39.4417 103.212 38.7256C104.026 38.0094 104.449 37.0573 104.481 35.8691H111.098C111.081 37.6595 110.593 39.3034 109.633 40.8008C108.673 42.2819 107.354 43.4375 105.678 44.2676C104.018 45.0814 102.178 45.4883 100.16 45.4883C96.3841 45.4883 93.4056 44.292 91.2246 41.8994C89.0436 39.4906 87.9531 36.1702 87.9531 31.9385V31.4746C87.9531 27.4056 89.0355 24.1585 91.2002 21.7334C93.3649 19.3083 96.3353 18.0957 100.111 18.0957C103.415 18.0957 106.06 19.0397 108.046 20.9277C110.048 22.7995 111.065 25.2979 111.098 28.4229H104.481C104.449 27.0557 104.026 25.9489 103.212 25.1025C102.398 24.2399 101.324 23.8086 99.9893 23.8086C98.3454 23.8086 97.1003 24.4108 96.2539 25.6152C95.4238 26.8034 95.0088 28.7402 95.0088 31.4258V32.1582C95.0088 34.8763 95.4238 36.8294 96.2539 38.0176C97.084 39.2057 98.3454 39.7998 100.038 39.7998ZM114.027 31.5479C114.027 28.9274 114.532 26.5918 115.541 24.541C116.55 22.4902 117.999 20.9033 119.887 19.7803C121.791 18.6572 123.996 18.0957 126.503 18.0957C130.067 18.0957 132.973 19.1862 135.219 21.3672C137.481 23.5482 138.743 26.5104 139.003 30.2539L139.052 32.0605C139.052 36.1133 137.921 39.3685 135.658 41.8262C133.396 44.2676 130.36 45.4883 126.552 45.4883C122.743 45.4883 119.7 44.2676 117.421 41.8262C115.159 39.3848 114.027 36.0645 114.027 31.8652V31.5479ZM121.083 32.0605C121.083 34.5671 121.555 36.4876 122.499 37.8223C123.443 39.1406 124.794 39.7998 126.552 39.7998C128.261 39.7998 129.595 39.1488 130.556 37.8467C131.516 36.5283 131.996 34.4287 131.996 31.5479C131.996 29.0902 131.516 27.1859 130.556 25.835C129.595 24.484 128.244 23.8086 126.503 23.8086C124.778 23.8086 123.443 24.484 122.499 25.835C121.555 27.1696 121.083 29.2448 121.083 32.0605ZM150.014 18.584L150.233 21.5381C152.105 19.2432 154.636 18.0957 157.826 18.0957C161.228 18.0957 163.563 19.4385 164.833 22.124C166.688 19.4385 169.333 18.0957 172.768 18.0957C175.632 18.0957 177.764 18.9339 179.164 20.6104C180.564 22.2705 181.264 24.777 181.264 28.1299V45H174.184V28.1543C174.184 26.6569 173.891 25.5664 173.305 24.8828C172.719 24.1829 171.685 23.833 170.204 23.833C168.088 23.833 166.623 24.8421 165.81 26.8604L165.834 45H158.778V28.1787C158.778 26.6488 158.477 25.542 157.875 24.8584C157.273 24.1748 156.247 23.833 154.799 23.833C152.797 23.833 151.348 24.6631 150.453 26.3232V45H143.397V18.584H150.014ZM198.866 45.4883C194.993 45.4883 191.835 44.3001 189.394 41.9238C186.968 39.5475 185.756 36.3818 185.756 32.4268V31.7432C185.756 29.0902 186.269 26.722 187.294 24.6387C188.319 22.5391 189.768 20.9277 191.64 19.8047C193.528 18.6654 195.676 18.0957 198.085 18.0957C201.698 18.0957 204.538 19.235 206.605 21.5137C208.689 23.7923 209.73 27.0231 209.73 31.2061V34.0869H192.909C193.137 35.8122 193.821 37.1956 194.96 38.2373C196.116 39.279 197.572 39.7998 199.33 39.7998C202.048 39.7998 204.172 38.8151 205.702 36.8457L209.169 40.7275C208.111 42.2249 206.679 43.3968 204.872 44.2432C203.065 45.0732 201.063 45.4883 198.866 45.4883ZM198.061 23.8086C196.661 23.8086 195.521 24.2806 194.643 25.2246C193.78 26.1686 193.227 27.5195 192.982 29.2773H202.797V28.7158C202.764 27.1533 202.341 25.9489 201.527 25.1025C200.714 24.2399 199.558 23.8086 198.061 23.8086ZM234.657 12.0898V18.584H239.174V23.7598H234.657V36.9434C234.657 37.9199 234.844 38.6198 235.219 39.043C235.593 39.4661 236.309 39.6777 237.367 39.6777C238.148 39.6777 238.84 39.6208 239.442 39.5068V44.8535C238.059 45.2767 236.635 45.4883 235.17 45.4883C230.222 45.4883 227.699 42.9899 227.602 37.9932V23.7598H223.744V18.584H227.602V12.0898H234.657ZM241.273 31.5479C241.273 28.9274 241.778 26.5918 242.787 24.541C243.796 22.4902 245.245 20.9033 247.133 19.7803C249.037 18.6572 251.243 18.0957 253.749 18.0957C257.313 18.0957 260.219 19.1862 262.465 21.3672C264.727 23.5482 265.989 26.5104 266.249 30.2539L266.298 32.0605C266.298 36.1133 265.167 39.3685 262.904 41.8262C260.642 44.2676 257.606 45.4883 253.798 45.4883C249.989 45.4883 246.946 44.2676 244.667 41.8262C242.405 39.3848 241.273 36.0645 241.273 31.8652V31.5479ZM248.329 32.0605C248.329 34.5671 248.801 36.4876 249.745 37.8223C250.689 39.1406 252.04 39.7998 253.798 39.7998C255.507 39.7998 256.841 39.1488 257.802 37.8467C258.762 36.5283 259.242 34.4287 259.242 31.5479C259.242 29.0902 258.762 27.1859 257.802 25.835C256.841 24.484 255.491 23.8086 253.749 23.8086C252.024 23.8086 250.689 24.484 249.745 25.835C248.801 27.1696 248.329 29.2448 248.329 32.0605Z" fill="white"/>
<path d="M316.303 9.46289H303.236V45H294.447V9.46289H281.557V2.34375H316.303V9.46289ZM334.232 45C333.842 44.2383 333.559 43.291 333.383 42.1582C331.332 44.4434 328.666 45.5859 325.385 45.5859C322.279 45.5859 319.701 44.6875 317.65 42.8906C315.619 41.0938 314.604 38.8281 314.604 36.0938C314.604 32.7344 315.844 30.1562 318.324 28.3594C320.824 26.5625 324.428 25.6543 329.135 25.6348H333.031V23.8184C333.031 22.3535 332.65 21.1816 331.889 20.3027C331.146 19.4238 329.965 18.9844 328.344 18.9844C326.918 18.9844 325.795 19.3262 324.975 20.0098C324.174 20.6934 323.773 21.6309 323.773 22.8223H315.307C315.307 20.9863 315.873 19.2871 317.006 17.7246C318.139 16.1621 319.74 14.9414 321.811 14.0625C323.881 13.1641 326.205 12.7148 328.783 12.7148C332.689 12.7148 335.785 13.7012 338.07 15.6738C340.375 17.627 341.527 20.3809 341.527 23.9355V37.6758C341.547 40.6836 341.967 42.959 342.787 44.502V45H334.232ZM327.23 39.1113C328.48 39.1113 329.633 38.8379 330.688 38.291C331.742 37.7246 332.523 36.9727 333.031 36.0352V30.5859H329.867C325.629 30.5859 323.373 32.0508 323.1 34.9805L323.07 35.4785C323.07 36.5332 323.441 37.4023 324.184 38.0859C324.926 38.7695 325.941 39.1113 327.23 39.1113ZM356.967 45H348.471V13.3008H356.967V45ZM347.973 5.09766C347.973 3.82813 348.393 2.7832 349.232 1.96289C350.092 1.14258 351.254 0.732422 352.719 0.732422C354.164 0.732422 355.316 1.14258 356.176 1.96289C357.035 2.7832 357.465 3.82813 357.465 5.09766C357.465 6.38672 357.025 7.44141 356.146 8.26172C355.287 9.08203 354.145 9.49219 352.719 9.49219C351.293 9.49219 350.141 9.08203 349.262 8.26172C348.402 7.44141 347.973 6.38672 347.973 5.09766ZM391.537 33.4863L395.697 13.3008H403.871L395.785 45H388.695L382.689 25.0488L376.684 45H369.623L361.537 13.3008H369.711L373.842 33.457L379.643 13.3008H385.766L391.537 33.4863ZM426.459 45C426.068 44.2383 425.785 43.291 425.609 42.1582C423.559 44.4434 420.893 45.5859 417.611 45.5859C414.506 45.5859 411.928 44.6875 409.877 42.8906C407.846 41.0938 406.83 38.8281 406.83 36.0938C406.83 32.7344 408.07 30.1562 410.551 28.3594C413.051 26.5625 416.654 25.6543 421.361 25.6348H425.258V23.8184C425.258 22.3535 424.877 21.1816 424.115 20.3027C423.373 19.4238 422.191 18.9844 420.57 18.9844C419.145 18.9844 418.021 19.3262 417.201 20.0098C416.4 20.6934 416 21.6309 416 22.8223H407.533C407.533 20.9863 408.1 19.2871 409.232 17.7246C410.365 16.1621 411.967 14.9414 414.037 14.0625C416.107 13.1641 418.432 12.7148 421.01 12.7148C424.916 12.7148 428.012 13.7012 430.297 15.6738C432.602 17.627 433.754 20.3809 433.754 23.9355V37.6758C433.773 40.6836 434.193 42.959 435.014 44.502V45H426.459ZM419.457 39.1113C420.707 39.1113 421.859 38.8379 422.914 38.291C423.969 37.7246 424.75 36.9727 425.258 36.0352V30.5859H422.094C417.855 30.5859 415.6 32.0508 415.326 34.9805L415.297 35.4785C415.297 36.5332 415.668 37.4023 416.41 38.0859C417.152 38.7695 418.168 39.1113 419.457 39.1113ZM448.051 13.3008L448.314 16.9629C450.58 14.1309 453.617 12.7148 457.426 12.7148C460.785 12.7148 463.285 13.7012 464.926 15.6738C466.566 17.6465 467.406 20.5957 467.445 24.5215V45H458.979V24.7266C458.979 22.9297 458.588 21.6309 457.807 20.8301C457.025 20.0098 455.727 19.5996 453.91 19.5996C451.527 19.5996 449.74 20.6152 448.549 22.6465V45H440.082V13.3008H448.051ZM474.33 9.84375C474.33 7.61719 475.121 5.71289 476.703 4.13086C478.285 2.54883 480.15 1.75781 482.299 1.75781C484.428 1.75781 486.264 2.54883 487.807 4.13086C489.369 5.69336 490.15 7.59766 490.15 9.84375C490.15 12.0898 489.369 13.9844 487.807 15.5273C486.264 17.0508 484.428 17.8125 482.299 17.8125C480.189 17.8125 478.334 17.0508 476.732 15.5273C475.131 13.9844 474.33 12.0898 474.33 9.84375ZM482.299 13.4766C483.334 13.4766 484.184 13.1348 484.848 12.4512C485.531 11.748 485.873 10.8789 485.873 9.84375C485.873 8.82812 485.531 7.94922 484.848 7.20703C484.184 6.46484 483.334 6.09375 482.299 6.09375C481.264 6.09375 480.395 6.46484 479.691 7.20703C478.988 7.94922 478.637 8.82812 478.637 9.84375C478.637 10.8594 478.988 11.7188 479.691 12.4219C480.414 13.125 481.283 13.4766 482.299 13.4766Z" fill="#FF1D6C"/>
</g>
<defs>
<filter id="filter0_d_192:10334" x="0.895508" y="0.732422" width="492.255" height="51.8535" filterUnits="userSpaceOnUse" color-interpolation-filters="sRGB">
<feFlood flood-opacity="0" result="BackgroundImageFix"/>
<feColorMatrix in="SourceAlpha" type="matrix" values="0 0 0 0 0 0 0 0 0 0 0 0 0 0 0 0 0 0 127 0" result="hardAlpha"/>
<feOffset dy="4"/>
<feGaussianBlur stdDeviation="1.5"/>
<feComposite in2="hardAlpha" operator="out"/>
<feColorMatrix type="matrix" values="0 0 0 0 0.0509804 0 0 0 0 0.0431373 0 0 0 0 0.0470588 0 0 0 0.2 0"/>
<feBlend mode="normal" in2="BackgroundImageFix" result="effect1_dropShadow_192:10334"/>
<feBlend mode="normal" in="SourceGraphic" in2="effect1_dropShadow_192:10334" result="shape"/>
</filter>
</defs>
</svg>
